<?xml version="1.0" encoding="utf-8"?>
<!-- Generator: Adobe Illustrator 15.0.0, SVG Export Plug-In . SVG Version: 6.00 Build 0)  -->
<!DOCTYPE svg PUBLIC "-//W3C//DTD SVG 1.1//EN" "http://www.w3.org/Graphics/SVG/1.1/DTD/svg11.dtd">
<svg version="1.1" id="Layer_1" xmlns="http://www.w3.org/2000/svg" xmlns:xlink="http://www.w3.org/1999/xlink" x="0px" y="0px"
	 width="85.04px" height="85.04px" viewBox="0 0 85.04 85.04" enable-background="new 0 0 85.04 85.04" xml:space="preserve">
<path d="M42.52,0.455c-23.179,0-42.036,18.855-42.036,42.036c0,23.175,18.857,42.033,42.036,42.033
	c23.181,0,42.035-18.858,42.035-42.033C84.555,19.31,65.7,0.455,42.52,0.455z M5.31,42.534c0-9.897,3.844-19.213,10.824-26.233
	C23.11,9.289,32.397,5.394,42.302,5.34h0.411c4.24,0.054,8.221,1.746,11.202,4.766c2.985,3.023,4.63,7.021,4.63,11.271
	c0,2.842-0.753,5.629-2.172,8.07c-2.869,4.913-8.182,7.971-13.868,7.971c-8.138,0-14.989-6.089-15.931-14.162l-0.188-1.626
	l-1.53,0.583c-5.93,2.271-11,6.228-14.658,11.45c-2.293,3.273-3.925,6.9-4.844,10.722C5.323,43.771,5.31,43.153,5.31,42.534z
	 M61.066,74.65c-5.654,3.264-12.074,4.986-18.564,4.986c-6.385,0-12.705-1.651-18.273-4.774c-5.733-3.22-10.526-7.938-13.872-13.658
	c-0.035-0.054-0.069-0.114-0.099-0.169c-0.034-0.058-0.071-0.119-0.102-0.181c-2.076-3.702-2.601-7.991-1.478-12.083
	c1.125-4.098,3.768-7.524,7.448-9.647c2.436-1.406,5.204-2.151,7.999-2.151H24.2c5.691,0.024,10.99,3.099,13.835,8.022
	c4.068,7.049,2.222,16.024-4.299,20.877l-1.313,0.976l1.271,1.033c5.633,4.571,12.745,7.088,20.019,7.088
	c3.036,0,6.054-0.439,8.952-1.298C62.141,74.007,61.608,74.335,61.066,74.65z M74.749,61.012l-0.018,0.023l-0.016,0.031
	c-0.029,0.052-0.059,0.098-0.091,0.148c-2.877,4.843-8.163,7.846-13.799,7.846c-2.797,0-5.567-0.742-8.004-2.152
	c-2.457-1.418-4.5-3.464-5.899-5.915c-2.824-4.943-2.813-11.071,0.028-15.991c2.858-4.949,8.185-8.023,13.906-8.023
	c2.188,0,4.317,0.439,6.322,1.307l1.508,0.649l0.253-1.616c1.001-6.272,0.106-12.644-2.583-18.421
	c-1.688-3.623-4.015-6.851-6.864-9.558c0.546,0.284,1.089,0.579,1.624,0.887c8.573,4.95,14.718,12.937,17.304,22.49
	c2.586,9.549,1.313,19.542-3.587,28.14L74.749,61.012z"/>
</svg>
